#!OML:ASF H:\charlestonDancing\Project 1\Capture day 1\Session 1\femaleDancer.ASF
:FULLY-SPECIFIED
:DEGREES
274
root -1.92889 17.9183 5.90817 516.941 -76.936 -500.253
lowerback 21.9183 0.0412569 6.15929
upperback 7.028 0.782653 0.46495
thorax -4.43465 0.157126 -3.18603
lowerneck 2.55854 2.12918 1.2851
upperneck -13.2155 1.89645 -7.04619
head -4.27462 1.15484 -2.45126
rclavicle 1.19271e-014 4.77083e-015
rhumerus -53.085 -22.7765 -37.2151
rradius 80.3989
rwrist -67.3015
rhand 5.86744 -23.952
rfingers 7.12502
rthumb 31.197 -51.3158
lclavicle 1.19271e-014 4.77083e-015
lhumerus -94.2581 23.389 1.50096
lradius 11.6961
lwrist -60.1653
lhand -11.7296 12.3677
lfingers 7.12502
lthumb 14.3175 41.854
rfemur -18.2722 12.3909 15.8584
rtibia 84.7337
rfoot -21.0444 -8.99843
rtoes -15.403
lfemur -36.7471 -2.29653 -17.2312
ltibia 39.1663
lfoot -13.844 2.58588
ltoes -15.8126
275
root -1.94349 17.8964 5.90644 513.573 -76.9862 -495.94
lowerback 21.2962 -0.009889 7.18404
upperback 6.78743 0.938404 0.769083
thorax -4.33834 0.244061 -3.47208
lowerneck 2.35182 2.28506 1.48368
upperneck -13.0906 2.07104 -7.53488
head -4.18407 1.25108 -2.63684
rclavicle -3.4191e-014 -3.97569e-016
rhumerus -53.7298 -22.6029 -36.3987
rradius 80.0327
rwrist -67.879
rhand 7.31599 -23.7211
rfingers 7.12502
rthumb 32.5764 -50.8097
lclavicle -3.4191e-014 -3.97569e-016
lhumerus -97.4079 21.2823 -7.18481
lradius 11.4157
lwrist -65.3272
lhand -10.3663 11.4524
lfingers 7.12502
lthumb 15.6309 40.8409
rfemur -14.9162 12.9527 16.6202
rtibia 76.5108
rfoot -21.4608 -11.3649
rtoes -15.3612
lfemur -38.0767 -3.38061 -16.0505
ltibia 39.9247
lfoot -14.2705 2.99588
ltoes -14.1529
276
root -1.95925 17.8472 5.90193 510.932 -76.9602 -492.433
lowerback 20.5821 -0.0167359 8.04413
upperback 6.53213 1.09601 1.01451
thorax -4.20833 0.332701 -3.72391
lowerneck 2.24607 2.47929 1.70445
upperneck -13.0426 2.30421 -7.95994
head -4.13017 1.37516 -2.81085
rclavicle -2.78299e-014 -9.93923e-015
rhumerus -54.4431 -22.3329 -35.6205
rradius 79.9367
rwrist -68.2758
rhand 8.56743 -23.4759
rfingers 7.12502
rthumb 33.7664 -50.3112
lclavicle -2.78299e-014 -9.93923e-015
lhumerus -98.8526 19.2105 -12.4811
lradius 11.4287
lwrist -66.8343
lhand -9.37703 10.7726
lfingers 7.12502
lthumb 16.5835 40.0841
rfemur -11.6781 13.6369 17.2274
rtibia 68.1478
rfoot -21.2811 -14.1882
rtoes -11.5693
lfemur -39.5439 -4.18965 -15.0969
ltibia 41.1446
lfoot -15.0885 3.31023
ltoes -12.3636
277
root -1.96337 17.7677 5.893 508.966 -76.8655 -489.691
lowerback 19.8585 -0.0822113 8.70583
upperback 6.19909 1.1325 1.14568
thorax -4.17237 0.359146 -3.95696
lowerneck 2.68413 2.78305 2.13426
upperneck -13.3622 2.68611 -8.36342
head -4.26637 1.58068 -3.03415
rclavicle 9.93923e-015 -5.24792e-014
rhumerus -55.0815 -21.7911 -35.1652
rradius 80.1059
rwrist -68.5306
rhand 9.14376 -23.5044
rfingers 7.12502
rthumb 34.3138 -50.218
lclavicle 9.93923e-015 -5.24792e-014
lhumerus -99.6077 17.2552 -16.5497
lradius 11.5642
lwrist -66.4954
lhand -8.67496 10.9018
lfingers 7.12502
lthumb 17.2593 40.1554
rfemur -8.79905 14.4901 17.7013
rtibia 59.863
rfoot -22.9022 -14.5561
rtoes -17.3507
lfemur -41.0704 -4.69296 -14.3154
ltibia 42.5236
lfoot -16.0531 3.46649
ltoes -12.2106
278
root -1.94641 17.6685 5.87367 508.476 -76.7861 -488.603
lowerback 19.3552 -0.089807 8.93419
upperback 5.82572 1.17624 1.15642
thorax -4.30404 0.380433 -4.07989
lowerneck 3.26384 3.10617 2.48826
upperneck -13.7732 3.11145 -8.58897
head -4.45407 1.80693 -3.19894
rclavicle -3.97569e-015 -6.32135e-014
rhumerus -55.7343 -21.3596 -34.8524
rradius 80.4374
rwrist -68.8258
rhand 9.38358 -23.5002
rfingers 7.12502
rthumb 34.5415 -50.1621
lclavicle -3.97569e-015 -6.32135e-014
lhumerus -99.9721 15.5337 -20.5047
lradius 11.7212
lwrist -66.0574
lhand -8.02821 11.5004
lfingers 7.12502
lthumb 17.8817 40.6983
rfemur -6.15119 15.5031 17.843
rtibia 51.8493
rfoot -23.4212 -13.6049
rtoes -17.2965
lfemur -42.4737 -4.81888 -13.9036
ltibia 43.7949
lfoot -16.7899 3.34825
ltoes -12.331
279
root -1.93624 17.6053 5.85099 510.29 -76.8213 -490.085
lowerback 19.0097 0.223495 8.73833
upperback 5.67382 1.53342 1.02902
thorax -4.24526 0.562632 -4.17952
lowerneck 2.91861 3.24254 2.40513
upperneck -13.741 3.29923 -8.5195
head -4.37801 1.89161 -3.16335
rclavicle -1.17283e-014 -2.98177e-014
rhumerus -56.7206 -21.8624 -34.257
rradius 80.9563
rwrist -68.8862
rhand 9.54527 -23.3515
rfingers 7.12502
rthumb 34.6949 -49.9783
lclavicle -1.17283e-014 -2.98177e-014
lhumerus -99.5744 14.8607 -23.6695
lradius 11.8919
lwrist -66.3107
lhand -7.73344 12.1028
lfingers 7.12502
lthumb 18.1653 41.2746
rfemur -4.06666 16.6695 17.4556
rtibia 44.4211
rfoot -22.7349 -10.8164
rtoes -21.4313
lfemur -43.347 -4.61825 -14.1615
ltibia 44.7219
lfoot -17.3132 3.10063
ltoes -12.3086
280
root -1.92986 17.5794 5.82832 513.751 -76.7674 -493.602
lowerback 18.9219 0.425485 7.94485
upperback 5.52599 1.65367 0.715331
thorax -4.36743 0.623755 -4.095
lowerneck 3.13262 3.55668 2.73899
upperneck -13.8358 3.74469 -8.6474
head -4.40651 2.11145 -3.28228
rclavicle 3.18055e-015 3.02153e-014
rhumerus -57.236 -22.1066 -34.4425
rradius 81.5866
rwrist -68.5826
rhand 9.26475 -23.434
rfingers 7.12502
rthumb 34.4286 -50.1216
lclavicle 3.18055e-015 3.02153e-014
lhumerus -99.1805 14.3288 -25.983
lradius 12.0828
lwrist -66.3736
lhand -8.0343 12.5672
lfingers 7.12502
lthumb 17.8758 41.7656
rfemur -2.43148 17.7771 16.8531
rtibia 37.9075
rfoot -21.9166 -7.04063
rtoes -17.3949
lfemur -43.4301 -4.02946 -14.9011
ltibia 45.0243
lfoot -17.494 2.79501
ltoes -11.8934
281
root -1.90155 17.5618 5.79536 518.81 -76.5011 -499.132
lowerback 19.259 0.683274 6.57861
upperback 4.95391 1.81633 0.39369
thorax -5.19194 0.682905 -3.72202
lowerneck 5.83824 3.78605 2.99197
upperneck -14.6807 4.07492 -8.77633
head -5.09826 2.34824 -3.46781
rclavicle -3.1408e-014 -3.29983e-014
rhumerus -58.1011 -21.2967 -34.6023
rradius 82.3328
rwrist -68.192
rhand 8.45754 -23.6397
rfingers 7.12502
rthumb 33.6619 -50.4979
lclavicle -3.1408e-014 -3.29983e-014
lhumerus -98.1955 13.2727 -27.1939
lradius 12.1687
lwrist -66.427
lhand -8.79896 12.6346
lfingers 7.12502
lthumb 17.1399 41.8986
rfemur -1.1595 18.8948 16.0509
rtibia 32.64
rfoot -22.6506 -4.96526
rtoes -21.2629
lfemur -42.9243 -3.13101 -16.0001
ltibia 44.8589
lfoot -17.4225 2.51225
ltoes -11.3867
282
root -1.87036 17.5941 5.75982 526.592 -76.2136 -507.788
lowerback 19.9424 1.13711 4.50626
upperback 4.92955 2.00603 -0.147897
thorax -5.6251 0.777523 -3.19204
lowerneck 6.71402 4.02349 3.06277
upperneck -15.0827 4.39455 -8.85181
head -5.34931 2.53203 -3.55558
rclavicle -1.63003e-014 1.66979e-014
rhumerus -58.3143 -21.5065 -35.0828
rradius 82.9813
rwrist -67.644
rhand 7.66601 -23.6233
rfingers 7.12502
rthumb 32.9094 -50.6426
lclavicle -1.63003e-014 1.66979e-014
lhumerus -97.2242 13.8733 -27.3084
lradius 12.2071
lwrist -66.428
lhand -9.77026 12.5339
lfingers 7.12502
lthumb 16.2049 41.8766
rfemur -0.513833 19.354 14.5346
rtibia 28.9709
rfoot -21.8427 -2.06335
rtoes -19.3827
lfemur -41.6913 -2.42875 -17.8575
ltibia 44.1513
lfoot -17.3846 2.45991
ltoes -10.9775
283
root -1.82502 17.6332 5.71828 528.282 -75.3399 -509.908
lowerback 20.4275 1.37906 3.98738
upperback 5.12428 2.19228 -0.327342
thorax -5.66778 0.862985 -3.14553
lowerneck 6.1699 4.33591 3.14606
upperneck -15.0144 4.8071 -8.99686
head -5.20105 2.72666 -3.61838
rclavicle 1.03368e-014 -3.10104e-014
rhumerus -57.5743 -22.225 -36.2285
rradius 83.3923
rwrist -66.7645
rhand 7.03638 -23.3829
rfingers 7.12502
rthumb 32.3103 -50.5261
lclavicle 1.03368e-014 -3.10104e-014
lhumerus -96.2258 15.5883 -25.4093
lradius 12.2977
lwrist -64.806
lhand -11.0382 12.3923
lfingers 7.12502
lthumb 14.9837 41.8302
rfemur -1.09997 19.1361 14.7662
rtibia 26.918
rfoot -21.8256 -0.927581
rtoes -20.9802
lfemur -40.8174 -1.80877 -17.8059
ltibia 43.3118
lfoot -17.1438 2.54205
ltoes -9.94818
284
root -1.77222 17.6963 5.67516 529.318 -74.2728 -511.332
lowerback 20.925 1.58706 3.59054
upperback 5.55481 2.32631 -0.502642
thorax -5.45961 0.921721 -3.14725
lowerneck 4.3888 4.70764 3.20073
upperneck -14.4456 5.30336 -9.12496
head -4.68279 2.92837 -3.61803
rclavicle -4.37326e-014 -1.59028e-014
rhumerus -55.8957 -23.3616 -38.0166
rradius 83.4404
rwrist -65.4075
rhand 6.62209 -23.042
rfingers 7.12502
rthumb 31.9159 -50.2648
lclavicle -4.37326e-014 -1.59028e-014
lhumerus -94.8883 18.2364 -21.6396
lradius 12.4568
lwrist -61.2987
lhand -12.6463 12.304
lfingers 7.12502
lthumb 13.4342 41.8508
rfemur -2.56345 18.2974 15.2694
rtibia 26.3602
rfoot -21.5649 -0.396265
rtoes -20.64
lfemur -39.8405 -1.41075 -17.4095
ltibia 42.2558
lfoot -16.856 3.00362
ltoes -8.45285
285
root -1.71593 17.7721 5.63427 528.244 -73.0074 -510.274
lowerback 21.0546 1.71328 3.88669
upperback 5.4405 2.56758 -0.374581
thorax -5.62297 1.02974 -3.24447
lowerneck 4.66677 5.00679 3.31717
upperneck -14.1551 5.69401 -9.60088
head -4.59574 3.15162 -3.80043
rclavicle 3.18055e-014 1.23246e-014
rhumerus -54.6746 -23.5729 -39.4343
rradius 83.4057
rwrist -64.1015
rhand 6.31959 -22.9124
rfingers 7.12502
rthumb 31.6278 -50.1923
lclavicle 3.18055e-014 1.23246e-014
lhumerus -91.618 19.9964 -13.3957
lradius 12.9392
lwrist -53.994
lhand -14.1709 12.7638
lfingers 7.12502
lthumb 11.9643 42.4019
rfemur -4.84568 17.0797 16.6181
rtibia 26.7386
rfoot -21.5197 -0.789383
rtoes -21.3972
lfemur -39.1883 -1.18378 -16.1254
ltibia 41.184
lfoot -16.6267 3.78054
ltoes -7.25225
286
root -1.65812 17.8411 5.59446 527.155 -71.8583 -508.896
lowerback 20.8025 1.6887 4.33231
upperback 5.30965 2.64152 -0.218698
thorax -5.61217 1.06383 -3.34123
lowerneck 4.76935 5.4959 3.6411
upperneck -13.6648 6.35299 -10.3013
head -4.38029 3.5049 -4.08197
rclavicle 3.02153e-014 3.18055e-015
rhumerus -53.1412 -23.7589 -41.1029
rradius 83.3913
rwrist -62.7555
rhand 5.79593 -23.0895
rfingers 7.12502
rthumb 31.1288 -50.4664
lclavicle 3.02153e-014 3.18055e-015
lhumerus -87.2023 21.2227 -2.41849
lradius 14.0887
lwrist -44.1991
lhand -15.3584 13.7281
lfingers 7.12502
lthumb 10.819 43.4295
rfemur -7.68088 15.7639 18.163
rtibia 27.5701
rfoot -22.2885 -1.16418
rtoes -23.1723
lfemur -38.8145 -1.21239 -14.6635
ltibia 39.9753
lfoot -16.3446 4.76185
ltoes -6.72538
